<svg id="Layer_1" data-name="Layer 1" xmlns="http://www.w3.org/2000/svg" viewBox="0 0 196.01 179.93"><defs><style>.cls-1{fill:#010101;stroke:#231f20;stroke-miterlimit:10;stroke-width:3px;}</style></defs><title>icon-sticky</title><path class="cls-1" d="M107,85.14a115.86,115.86,0,0,0,4.82-33.62V14a2.46,2.46,0,0,0-2.46-2.45H39A2.45,2.45,0,0,0,36.56,14V51.52A112.87,112.87,0,0,1,32,83.58h0a2.46,2.46,0,0,0,2.33,3.23h70.37A2.45,2.45,0,0,0,107,85.14ZM40.74,81.9a2.45,2.45,0,0,1-2.39-3,122.87,122.87,0,0,0,3.12-27.37V18.91a2.46,2.46,0,0,1,2.46-2.46h60.54a2.46,2.46,0,0,1,2.46,2.46V51.52a118.21,118.21,0,0,1-3.57,28.54A2.45,2.45,0,0,1,101,81.9Z" transform="translate(-1.99 -10.04)"/><path class="cls-1" d="M123.68,51.75a2.46,2.46,0,0,0-2.46,2.45V91.74a117.37,117.37,0,0,1-1.65,19.4,2.45,2.45,0,0,1-2.42,2H85.93a2.46,2.46,0,0,1-2.46-2.45V100A2.46,2.46,0,0,0,81,97.54H10.64A2.46,2.46,0,0,0,8.19,100v37.53a112.87,112.87,0,0,1-4.57,32.06h0A2.46,2.46,0,0,0,6,172.83H55.14a2.46,2.46,0,0,1,2.41,2.93,90.63,90.63,0,0,1-2.32,9.48h0a2.45,2.45,0,0,0,2.34,3.22h70.37a2.46,2.46,0,0,0,2.33-1.68h0a116.43,116.43,0,0,0,4.81-33.61V129.49a2.46,2.46,0,0,1,2.46-2.46h51.83a2.45,2.45,0,0,0,2.33-1.68h0a115.86,115.86,0,0,0,4.82-33.62V54.2a2.46,2.46,0,0,0-2.46-2.45ZM13.1,137.53V104.91a2.46,2.46,0,0,1,2.46-2.45H76.1a2.46,2.46,0,0,1,2.46,2.45v32.62A118.28,118.28,0,0,1,75,166.07a2.45,2.45,0,0,1-2.38,1.84H12.37a2.45,2.45,0,0,1-2.39-3A122.77,122.77,0,0,0,13.1,137.53Zm117.06,15.64a118.28,118.28,0,0,1-3.57,28.54,2.46,2.46,0,0,1-2.38,1.84H64a2.46,2.46,0,0,1-2.4-3c.38-1.63.78-3.54,1.17-5.7a2.46,2.46,0,0,1,2.42-2H76.32a2.45,2.45,0,0,0,2.33-1.68h0a115.75,115.75,0,0,0,4.82-33.61v-17a2.46,2.46,0,0,1,2.45-2.46H115a2.46,2.46,0,0,1,2.37,3.11c-.44,1.64-.74,2.56-.75,2.59h0A2.46,2.46,0,0,0,119,127h8.72a2.46,2.46,0,0,1,2.46,2.46Zm61.43-61.43A117.67,117.67,0,0,1,188,120.27a2.45,2.45,0,0,1-2.38,1.85H125.41a2.47,2.47,0,0,1-2.4-3,122.74,122.74,0,0,0,3.13-27.36V59.12a2.46,2.46,0,0,1,2.46-2.46h60.54a2.46,2.46,0,0,1,2.45,2.46Z" transform="translate(-1.99 -10.04)"/></svg>