<svg id="Layer_1" data-name="Layer 1" xmlns="http://www.w3.org/2000/svg" viewBox="0 0 196.9 173.77"><defs><style>.cls-1{fill:#010101;stroke:#231f20;stroke-miterlimit:10;stroke-width:2.08px;}</style></defs><title>icons-comp</title><path class="cls-1" d="M190.72,155.71H9.28A6.76,6.76,0,0,1,2.59,149V129.53a2.88,2.88,0,0,1,3-3H194.37a2.88,2.88,0,0,1,3,3V149A6.76,6.76,0,0,1,190.72,155.71Zm-182-23.14V149a.65.65,0,0,0,.6.61H190.72a.65.65,0,0,0,.6-.61V132.57Z" transform="translate(-1.55 -13.12)"/><path class="cls-1" d="M194.37,132.57H5.63a2.88,2.88,0,0,1-3-3V20.85a6.75,6.75,0,0,1,6.69-6.69H190.72a6.75,6.75,0,0,1,6.69,6.69V129.53A3,3,0,0,1,194.37,132.57ZM8.68,126.48H191.32V20.85a.65.65,0,0,0-.6-.61H9.28a.65.65,0,0,0-.6.61Z" transform="translate(-1.55 -13.12)"/><path class="cls-1" d="M179.76,132.57H20.24a2.88,2.88,0,0,1-3-3V35.46a6.11,6.11,0,0,1,6.09-6.08H176.41a6.11,6.11,0,0,1,6.09,6.08v94.07A2.8,2.8,0,0,1,179.76,132.57ZM23.29,126.48H176.41v-91H23.29Z" transform="translate(-1.55 -13.12)"/><path class="cls-1" d="M136.83,185.84H63.17a2.87,2.87,0,0,1-3.05-3V152.66a2.88,2.88,0,0,1,3.05-3h73.36a2.87,2.87,0,0,1,3,3V182.8A2.79,2.79,0,0,1,136.83,185.84Zm-70.62-6.08h67.28v-24H66.21Z" transform="translate(-1.55 -13.12)"/><path class="cls-1" d="M103.35,144.14h-6.7a3,3,0,0,1,0-6.09h6.7a3,3,0,0,1,0,6.09Z" transform="translate(-1.55 -13.12)"/><path class="cls-1" d="M149,185.84H51a3,3,0,1,1,0-6.08h98a3,3,0,1,1,0,6.08Z" transform="translate(-1.55 -13.12)"/></svg>