<svg id="Layer_1" data-name="Layer 1" xmlns="http://www.w3.org/2000/svg" viewBox="0 0 192.68 174.38"><defs><style>.cls-1{fill:#010101;}</style></defs><title>icons-paper</title><path class="cls-1" d="M192.09,155.53H172.46V40a27.31,27.31,0,0,0-27.2-27.21H30.86A27.31,27.31,0,0,0,3.66,40a4.47,4.47,0,0,0,4.46,4.45H49.37V160c0,.66.23,1.11.23,1.56a27.32,27.32,0,0,0,27.2,25.64h92.32a27.31,27.31,0,0,0,27.2-27.2A4.14,4.14,0,0,0,192.09,155.53ZM13,35.56A18.23,18.23,0,0,1,30.86,21.73h1.79A18.32,18.32,0,0,1,48.7,35.56ZM95.09,160a18.29,18.29,0,0,1-36.58,0,2.85,2.85,0,0,0-.22-1.34V40a26.79,26.79,0,0,0-7.13-18.29H145A18.37,18.37,0,0,1,163.32,40V155.53H99.55A4.46,4.46,0,0,0,95.09,160Zm74,18.28H96.87a26.82,26.82,0,0,0,6.69-13.83H187A18.22,18.22,0,0,1,169.12,178.27Z" transform="translate(-3.66 -12.81)"/></svg>