<svg id="Layer_1" data-name="Layer 1" xmlns="http://www.w3.org/2000/svg" viewBox="0 0 191.95 191.95"><defs><style>.cls-1{fill:#010101;}</style></defs><title>icons-link</title><path class="cls-1" d="M181,19a51.21,51.21,0,0,0-72.39,0L80,47.57a62.16,62.16,0,0,1,6.84-.36,65.89,65.89,0,0,1,20.91,3.37L124,34.4A29.43,29.43,0,1,1,165.6,76l-31.67,31.67A29.44,29.44,0,0,1,86,98.42a14.57,14.57,0,0,0-9.56,4.28L68,111.15a51.73,51.73,0,0,0,8.88,11.92,51.2,51.2,0,0,0,72.4,0L181,91.39A51.19,51.19,0,0,0,181,19Z" transform="translate(-4.02 -4.02)"/><path class="cls-1" d="M113.46,152.77a65.53,65.53,0,0,1-21.14-3.48L76,165.59A29.43,29.43,0,0,1,34.4,124L66.07,92.3a29.47,29.47,0,0,1,47.9,9.26,14.51,14.51,0,0,0,9.58-4.27L132,88.85A51.21,51.21,0,0,0,50.69,76.91L19,108.59A51.19,51.19,0,0,0,91.4,181l28.52-28.52q-3.19.3-6.45.3Z" transform="translate(-4.02 -4.02)"/></svg>