<svg id="Layer_1" data-name="Layer 1" xmlns="http://www.w3.org/2000/svg" viewBox="0 0 162.26 128.89"><defs><style>.cls-1{fill:#fff;}.cls-2,.cls-4{fill:#231f20;}.cls-3{fill:none;stroke:#231f20;stroke-miterlimit:10;stroke-width:0.5px;}.cls-4{font-size:12px;font-family:Roboto-Bold, Roboto;font-weight:700;}.cls-5{letter-spacing:-0.01em;}.cls-6{letter-spacing:-0.02em;}.cls-7{letter-spacing:0.01em;}.cls-8{letter-spacing:-0.01em;}</style></defs><title>timeline3-lofiPrototype</title><circle class="cls-1" cx="5.51" cy="6.76" r="5.01"/><path class="cls-2" d="M5.51,3.28A4.51,4.51,0,1,1,1,7.79,4.51,4.51,0,0,1,5.51,3.28m0-1A5.51,5.51,0,1,0,11,7.79a5.51,5.51,0,0,0-5.5-5.51Z" transform="translate(0 -1.03)"/><line class="cls-3" x1="5.51" y1="16.9" x2="5.51" y2="54.73"/><line class="cls-3" x1="5.51" y1="74.45" x2="5.51" y2="112.27"/><text class="cls-4" transform="translate(61.93 10.27)">what <tspan class="cls-5" x="29.01" y="0">t</tspan><tspan x="32.89" y="0">o p</tspan><tspan class="cls-6" x="49.42" y="0">r</tspan><tspan x="53.58" y="0">o</tspan><tspan class="cls-5" x="60.37" y="0">t</tspan><tspan x="64.25" y="0">otype?</tspan></text><circle class="cls-1" cx="5.51" cy="64.59" r="5.01"/><path class="cls-2" d="M5.51,61.11A4.51,4.51,0,1,1,1,65.61a4.51,4.51,0,0,1,4.51-4.5m0-1a5.51,5.51,0,1,0,5.5,5.5,5.51,5.51,0,0,0-5.5-5.5Z" transform="translate(0 -1.03)"/><text class="cls-4" transform="translate(61.93 64.59)">s<tspan class="cls-5" x="6.17" y="0">t</tspan><tspan x="10.05" y="0">o</tspan><tspan class="cls-7" x="16.83" y="0">r</tspan><tspan x="21.32" y="0">yboa</tspan><tspan class="cls-8" x="47.31" y="0">r</tspan><tspan x="51.58" y="0">ding</tspan></text><circle class="cls-2" cx="5.51" cy="122.14" r="5.01"/><path class="cls-2" d="M5.51,118.66A4.51,4.51,0,1,1,1,123.16a4.51,4.51,0,0,1,4.51-4.5m0-1a5.51,5.51,0,1,0,5.5,5.5,5.51,5.51,0,0,0-5.5-5.5Z" transform="translate(0 -1.03)"/><text class="cls-4" transform="translate(61.93 125.64)">lofi-p<tspan class="cls-6" x="28.86" y="0">r</tspan><tspan x="33.02" y="0">o</tspan><tspan class="cls-5" x="39.81" y="0">t</tspan><tspan x="43.69" y="0">otypes</tspan></text></svg>