<svg id="Layer_1" data-name="Layer 1" xmlns="http://www.w3.org/2000/svg" viewBox="0 0 160.13 71.35"><defs><style>.cls-1,.cls-3{fill:#231f20;}.cls-2{fill:none;stroke:#231f20;stroke-miterlimit:10;stroke-width:0.5px;}.cls-3{font-size:12px;font-family:Roboto-Bold, Roboto;font-weight:700;}.cls-4{letter-spacing:-0.01em;}.cls-5{letter-spacing:-0.01em;}.cls-6{fill:#fff;}</style></defs><title>timeline4-preparePitch</title><circle class="cls-1" cx="5.51" cy="6.76" r="5.01"/><path class="cls-1" d="M5.51,3.28A4.51,4.51,0,1,1,1,7.79,4.51,4.51,0,0,1,5.51,3.28m0-1A5.51,5.51,0,1,0,11,7.79a5.51,5.51,0,0,0-5.5-5.51Z" transform="translate(0 -1.03)"/><line class="cls-2" x1="5.51" y1="16.9" x2="5.51" y2="54.73"/><text class="cls-3" transform="translate(61.93 10.27)">p<tspan class="cls-4" x="6.76" y="0">r</tspan><tspan x="11.02" y="0">epa</tspan><tspan class="cls-4" x="30.7" y="0">r</tspan><tspan x="34.96" y="0">e </tspan><tspan class="cls-5" x="44.44" y="0">y</tspan><tspan x="50.37" y="0">our pitch</tspan></text><circle class="cls-6" cx="5.51" cy="64.59" r="5.01"/><path class="cls-1" d="M5.51,61.11A4.51,4.51,0,1,1,1,65.61a4.51,4.51,0,0,1,4.51-4.5m0-1a5.51,5.51,0,1,0,5.5,5.5,5.51,5.51,0,0,0-5.5-5.5Z" transform="translate(0 -1.03)"/><text class="cls-3" transform="translate(61.93 68.09)">pitch it!</text></svg>