<svg id="Layer_1" data-name="Layer 1" xmlns="http://www.w3.org/2000/svg" viewBox="0 0 118.96 243.99"><defs><style>.cls-1{fill:#fff;}.cls-2,.cls-4{fill:#231f20;}.cls-3{fill:none;stroke:#231f20;stroke-miterlimit:10;stroke-width:0.5px;}.cls-4{font-size:12px;font-family:Roboto-Bold, Roboto;font-weight:700;}.cls-5{letter-spacing:-0.01em;}.cls-6{letter-spacing:-0.01em;}</style></defs><title>timeline-resources</title><circle class="cls-1" cx="5.51" cy="6.76" r="5.01"/><path class="cls-2" d="M5.51,3.28A4.51,4.51,0,1,1,1,7.79,4.51,4.51,0,0,1,5.51,3.28m0-1A5.51,5.51,0,1,0,11,7.79a5.51,5.51,0,0,0-5.5-5.51Z" transform="translate(0 -1.03)"/><line class="cls-3" x1="5.51" y1="16.9" x2="5.51" y2="54.73"/><line class="cls-3" x1="5.51" y1="74.45" x2="5.51" y2="112.27"/><line class="cls-3" x1="5.51" y1="132" x2="5.51" y2="169.82"/><line class="cls-3" x1="5.51" y1="189.54" x2="5.51" y2="227.37"/><text class="cls-4" transform="translate(61.93 10.27)">iceb<tspan class="cls-5" x="22.68" y="0">r</tspan><tspan x="26.95" y="0">ea</tspan><tspan class="cls-6" x="39.87" y="0">k</tspan><tspan x="46.16" y="0">er</tspan></text><circle class="cls-1" cx="5.51" cy="64.59" r="5.01"/><path class="cls-2" d="M5.51,61.11A4.51,4.51,0,1,1,1,65.61a4.51,4.51,0,0,1,4.51-4.5m0-1a5.51,5.51,0,1,0,5.5,5.5,5.51,5.51,0,0,0-5.5-5.5Z" transform="translate(0 -1.03)"/><text class="cls-4" transform="translate(61.93 68.09)">challenge</text><circle class="cls-1" cx="5.51" cy="122.14" r="5.01"/><path class="cls-2" d="M5.51,118.66A4.51,4.51,0,1,1,1,123.16a4.51,4.51,0,0,1,4.51-4.5m0-1a5.51,5.51,0,1,0,5.5,5.5,5.51,5.51,0,0,0-5.5-5.5Z" transform="translate(0 -1.03)"/><text class="cls-4" transform="translate(61.93 125.64)">GDS</text><circle class="cls-2" cx="5.51" cy="179.68" r="5.01"/><path class="cls-2" d="M5.51,176.2A4.51,4.51,0,1,1,1,180.71a4.52,4.52,0,0,1,4.51-4.51m0-1a5.51,5.51,0,1,0,5.5,5.51,5.51,5.51,0,0,0-5.5-5.51Z" transform="translate(0 -1.03)"/><text class="cls-4" transform="translate(61.93 183.19)"><tspan class="cls-5">r</tspan><tspan x="4.27" y="0">esou</tspan><tspan class="cls-5" x="30.42" y="0">r</tspan><tspan x="34.69" y="0">ces</tspan></text><circle class="cls-1" cx="5.51" cy="237.23" r="5.01"/><path class="cls-2" d="M5.51,233.75A4.51,4.51,0,1,1,1,238.26a4.51,4.51,0,0,1,4.51-4.51m0-1a5.51,5.51,0,1,0,5.5,5.51,5.51,5.51,0,0,0-5.5-5.51Z" transform="translate(0 -1.03)"/><text class="cls-4" transform="translate(61.93 240.74)">sprint!</text></svg>