<svg id="Layer_1" data-name="Layer 1" xmlns="http://www.w3.org/2000/svg" viewBox="0 0 168.71 359.09"><defs><style>.cls-1,.cls-3{fill:#231f20;}.cls-2{fill:none;stroke:#231f20;stroke-miterlimit:10;stroke-width:0.5px;}.cls-3{font-size:12px;font-family:Roboto-Bold, Roboto;font-weight:700;}.cls-4{letter-spacing:-0.01em;}.cls-5{letter-spacing:-0.01em;}.cls-6{letter-spacing:0.01em;}.cls-7{fill:#fff;}.cls-8{letter-spacing:-0.08em;}.cls-9{letter-spacing:-0.01em;}.cls-10{letter-spacing:-0.11em;}</style></defs><title>timeline-icebreaker</title><circle class="cls-1" cx="5.51" cy="6.76" r="5.01"/><path class="cls-1" d="M5.51,3.28A4.51,4.51,0,1,1,1,7.79,4.51,4.51,0,0,1,5.51,3.28m0-1A5.51,5.51,0,1,0,11,7.79a5.51,5.51,0,0,0-5.5-5.51Z" transform="translate(0 -1.03)"/><line class="cls-2" x1="5.51" y1="16.9" x2="5.51" y2="54.73"/><line class="cls-2" x1="5.51" y1="74.45" x2="5.51" y2="112.27"/><line class="cls-2" x1="5.51" y1="132" x2="5.51" y2="169.82"/><line class="cls-2" x1="5.51" y1="189.54" x2="5.51" y2="227.37"/><text class="cls-3" transform="translate(61.93 10.27)">skills in<tspan class="cls-4" x="41.19" y="0">v</tspan><tspan x="47.17" y="0">en</tspan><tspan class="cls-5" x="60.38" y="0">t</tspan><tspan x="64.26" y="0">o</tspan><tspan class="cls-6" x="71.05" y="0">r</tspan><tspan x="75.53" y="0">y</tspan></text><circle class="cls-7" cx="5.51" cy="64.59" r="5.01"/><path class="cls-1" d="M5.51,61.11A4.51,4.51,0,1,1,1,65.61a4.51,4.51,0,0,1,4.51-4.5m0-1a5.51,5.51,0,1,0,5.5,5.5,5.51,5.51,0,0,0-5.5-5.5Z" transform="translate(0 -1.03)"/><text class="cls-3" transform="translate(61.93 68.09)">choose a decide<tspan class="cls-8" x="87.55" y="0">r</tspan><tspan x="90.91" y="0">,</tspan><tspan x="0" y="14.4">collect supplies</tspan></text><circle class="cls-7" cx="5.51" cy="122.14" r="5.01"/><path class="cls-1" d="M5.51,118.66A4.51,4.51,0,1,1,1,123.16a4.51,4.51,0,0,1,4.51-4.5m0-1a5.51,5.51,0,1,0,5.5,5.5,5.51,5.51,0,0,0-5.5-5.5Z" transform="translate(0 -1.03)"/><text class="cls-3" transform="translate(61.93 125.64)"><tspan class="cls-9">v</tspan><tspan x="5.98" y="0">oice of the user</tspan></text><circle class="cls-7" cx="5.51" cy="179.68" r="5.01"/><path class="cls-1" d="M5.51,176.2A4.51,4.51,0,1,1,1,180.71a4.52,4.52,0,0,1,4.51-4.51m0-1a5.51,5.51,0,1,0,5.5,5.51,5.51,5.51,0,0,0-5.5-5.51Z" transform="translate(0 -1.03)"/><text class="cls-3" transform="translate(61.93 183.19)">user journ<tspan class="cls-4" x="54.45" y="0">e</tspan><tspan x="60.86" y="0">y</tspan></text><circle class="cls-7" cx="5.51" cy="237.23" r="5.01"/><path class="cls-1" d="M5.51,233.75A4.51,4.51,0,1,1,1,238.26a4.51,4.51,0,0,1,4.51-4.51m0-1a5.51,5.51,0,1,0,5.5,5.51,5.51,5.51,0,0,0-5.5-5.51Z" transform="translate(0 -1.03)"/><text class="cls-3" transform="translate(61.93 240.74)">HMW + affinity map</text><line class="cls-2" x1="5.51" y1="247.09" x2="5.51" y2="284.92"/><line class="cls-2" x1="5.51" y1="304.64" x2="5.51" y2="342.47"/><circle class="cls-7" cx="5.51" cy="294.78" r="5.01"/><path class="cls-1" d="M5.51,291.3A4.51,4.51,0,1,1,1,295.81a4.51,4.51,0,0,1,4.51-4.51m0-1a5.51,5.51,0,1,0,5.5,5.51,5.51,5.51,0,0,0-5.5-5.51Z" transform="translate(0 -1.03)"/><text class="cls-3" transform="translate(61.93 298.29)">solution</text><circle class="cls-7" cx="5.51" cy="352.33" r="5.01"/><path class="cls-1" d="M5.51,348.85A4.51,4.51,0,1,1,1,353.35a4.51,4.51,0,0,1,4.51-4.5m0-1a5.51,5.51,0,1,0,5.5,5.5,5.51,5.51,0,0,0-5.5-5.5Z" transform="translate(0 -1.03)"/><text class="cls-3" transform="translate(61.93 355.83)">c<tspan class="cls-5" x="6.26" y="0">r</tspan><tspan x="10.46" y="0">azy 5</tspan><tspan class="cls-10" x="38.89" y="0">’</tspan><tspan x="40.29" y="0">s</tspan></text></svg>